<svg preserveAspectRatio="none" width="100%" height="100%" overflow="visible" style="display: block;" viewBox="0 0 330 200" fill="none" xmlns="http://www.w3.org/2000/svg">
<g id="Frame" clip-path="url(#clip0_769_20018)">
<path id="Vector" d="M164.148 200C254.805 200 328.297 197.02 328.297 193.343C328.297 189.667 254.805 186.686 164.148 186.686C73.4917 186.686 0 189.667 0 193.343C0 197.02 73.4917 200 164.148 200Z" fill="#E6E6E6"/>
<path id="Vector_2" d="M27.3195 43.391C36.7117 43.391 44.3257 35.7745 44.3257 26.3792C44.3257 16.9839 36.7117 9.36742 27.3195 9.36742C17.9272 9.36742 10.3132 16.9839 10.3132 26.3792C10.3132 35.7745 17.9272 43.391 27.3195 43.391Z" fill="#FF6584"/>
<path id="Vector_3" d="M41.7762 109.918C64.8485 109.918 83.5524 91.2081 83.5524 68.1282C83.5524 45.0484 64.8485 26.3384 41.7762 26.3384C18.7038 26.3384 0 45.0484 0 68.1282C0 91.2081 18.7038 109.918 41.7762 109.918Z" fill="#4D5DFA"/>
<path id="Vector_4" d="M45.803 194.001H37.2462L41.147 61.8345L45.803 194.001Z" fill="#3F3D56"/>
<path id="Vector_5" d="M41.9019 86.8832L51.0878 74.1702L41.7762 90.03L40.7695 88.2678L41.9019 86.8832Z" fill="#3F3D56"/>
<path id="Vector_6" d="M40.8952 99.7223L31.7096 87.0093L41.0213 102.869L42.0279 101.107L40.8952 99.7223Z" fill="#3F3D56"/>
<path id="Vector_7" d="M305.929 194.14H297.373L301.274 61.9735L305.929 194.14Z" fill="#3F3D56"/>
<path id="Vector_8" d="M309.659 186.969C309.661 186.921 309.666 186.874 309.666 186.825C309.668 186.082 309.482 185.35 309.126 184.697C308.77 184.044 308.255 183.492 307.63 183.09C307.004 182.688 306.288 182.45 305.546 182.398C304.804 182.346 304.062 182.482 303.386 182.793C302.752 182.061 301.896 181.557 300.949 181.359C300.001 181.161 299.015 181.278 298.141 181.695C297.267 182.111 296.553 182.802 296.11 183.663C295.666 184.523 295.517 185.505 295.685 186.459C295.662 186.459 295.64 186.456 295.618 186.456C294.912 186.455 294.215 186.622 293.587 186.944C292.958 187.267 292.416 187.735 292.005 188.309C291.593 188.883 291.325 189.547 291.222 190.246C291.119 190.945 291.184 191.659 291.412 192.327C291.641 192.996 292.025 193.6 292.534 194.09C293.043 194.58 293.661 194.942 294.337 195.145C295.014 195.347 295.729 195.386 296.423 195.256C297.118 195.127 297.771 194.834 298.329 194.401C298.681 195.087 299.206 195.669 299.852 196.091C300.498 196.512 301.243 196.757 302.013 196.803C302.783 196.848 303.551 196.692 304.242 196.35C304.933 196.008 305.523 195.491 305.953 194.851C306.481 195.235 307.087 195.498 307.728 195.62C308.37 195.743 309.03 195.722 309.662 195.56C310.295 195.398 310.883 195.098 311.386 194.682C311.889 194.266 312.294 193.743 312.572 193.152C312.85 192.561 312.994 191.916 312.994 191.263C312.993 190.61 312.849 189.965 312.571 189.375C312.292 188.784 311.887 188.262 311.384 187.846C310.881 187.43 310.292 187.131 309.659 186.969V186.969Z" fill="#E6E6E6"/>
<path id="Vector_9" d="M302.028 87.0222L311.214 74.3093L301.903 90.169L300.896 88.4068L302.028 87.0222Z" fill="#3F3D56"/>
<path id="Vector_10" d="M301.022 99.8613L291.836 87.1483L301.148 103.008L302.155 101.246L301.022 99.8613Z" fill="#3F3D56"/>
<path id="Vector_11" d="M169.713 194.118C212.694 194.118 247.536 159.264 247.536 116.269C247.536 73.2746 212.694 38.4206 169.713 38.4206C126.733 38.4206 91.8899 73.2746 91.8899 116.269C91.8899 159.264 126.733 194.118 169.713 194.118Z" fill="#3F3D56"/>
<path id="Vector_12" d="M169.713 187.674C209.136 187.674 241.094 155.705 241.094 116.269C241.094 76.8338 209.136 44.865 169.713 44.865C130.291 44.865 98.3322 76.8338 98.3322 116.269C98.3322 155.705 130.291 187.674 169.713 187.674Z" fill="white"/>
<path id="Vector_13" d="M171.517 176.847H167.394V184.58H171.517V176.847Z" fill="#3F3D56"/>
<path id="Vector_14" d="M243.285 158.416L244.315 165.118V167.18H250.242V164.602C250.242 164.602 250.5 159.962 249.469 158.674C248.438 157.385 243.285 158.416 243.285 158.416Z" fill="#FFB8B8"/>
<path id="Vector_15" d="M250.758 166.149L243.285 166.407L245.862 185.74C245.862 185.74 243.8 193.989 246.119 194.505C247.731 194.83 249.371 195.003 251.015 195.02C251.015 195.02 253.335 197.34 255.912 197.082C257.623 196.864 259.281 196.34 260.808 195.536C260.808 195.536 261.323 193.989 259.519 193.473C257.715 192.958 252.819 191.411 251.788 185.998L250.758 166.149Z" fill="#2F2E41"/>
<path id="Vector_16" d="M232.719 158.416L233.75 165.118V167.18H239.677V164.602C239.677 164.602 239.935 159.962 238.904 158.674C237.873 157.385 232.719 158.416 232.719 158.416Z" fill="#FFB8B8"/>
<path id="Vector_17" d="M240.192 166.149L232.719 166.407L235.296 185.74C235.296 185.74 233.235 193.989 235.554 194.505C237.166 194.83 238.805 195.003 240.45 195.02C240.45 195.02 242.769 197.34 245.346 197.082C247.057 196.864 248.716 196.34 250.242 195.536C250.242 195.536 250.758 193.989 248.954 193.473C247.15 192.958 242.254 191.411 241.223 185.998L240.192 166.149Z" fill="#2F2E41"/>
<path id="Vector_18" d="M249.816 136.148L250.895 138.085C250.895 138.085 254.647 146.422 251.509 145.221C248.371 144.02 248.26 138.834 248.26 138.834L247.965 135.842L249.816 136.148Z" fill="#FFB8B8"/>
<path id="Vector_19" d="M237.486 118.589V114.465H229.756V118.589H237.486Z" fill="#3F3D56"/>
<path id="Vector_20" d="M109.155 118.589V114.465H101.425V118.589H109.155Z" fill="#3F3D56"/>
<path id="Vector_21" d="M169.456 126.065C174.721 126.065 178.99 121.795 178.99 116.527C178.99 111.259 174.721 106.989 169.456 106.989C164.19 106.989 159.921 111.259 159.921 116.527C159.921 121.795 164.19 126.065 169.456 126.065Z" fill="#3F3D56"/>
<path id="Vector_22" d="M166.707 120.667L170.231 112.608L214.382 137.069L166.707 120.667Z" fill="#3F3D56"/>
<path id="Vector_23" d="M213.134 130.06L211.846 131.865C211.846 131.865 205.919 138.825 205.661 135.474C205.404 132.123 210.042 129.803 210.042 129.803L212.619 128.256L213.134 130.06Z" fill="#FFB8B8"/>
<path id="Vector_24" d="M236.708 104.58C236.708 104.58 234.428 105.782 235.985 108.516C237.542 111.25 246.678 139.535 246.678 139.535L251.948 138.038L247.3 120.15L244.639 108.907L236.708 104.58Z" fill="#4D5DFA"/>
<path id="Vector_25" d="M244.015 101.799C248.348 101.799 251.861 98.2852 251.861 93.9503C251.861 89.6153 248.348 86.1011 244.015 86.1011C239.681 86.1011 236.168 89.6153 236.168 93.9503C236.168 98.2852 239.681 101.799 244.015 101.799Z" fill="#2F2E41"/>
<path id="Vector_26" d="M243.156 102.092C246.429 102.092 249.083 99.4371 249.083 96.1627C249.083 92.8882 246.429 90.2338 243.156 90.2338C239.882 90.2338 237.229 92.8882 237.229 96.1627C237.229 99.4371 239.882 102.092 243.156 102.092Z" fill="#FFB8B8"/>
<path id="Vector_27" d="M245.862 97.0649L245.088 109.18L239.677 105.314C239.677 105.314 241.481 98.096 240.965 97.5804L245.862 97.0649Z" fill="#FFB8B8"/>
<path id="Vector_28" d="M245.861 108.149L240.032 103.831C240.032 103.831 237.358 102.736 236.585 104.025C235.811 105.314 231.946 124.389 234.008 127.998C234.008 127.998 245.088 130.318 247.408 129.029L248.438 122.327C248.438 122.327 249.727 118.203 247.665 115.625L245.861 108.149Z" fill="#4D5DFA"/>
<path id="Vector_29" d="M238.131 104.283C238.131 104.283 236.069 102.736 234.265 105.314C232.461 107.892 210.815 128.256 210.815 128.256L214.423 132.38L228.596 120.523L237.615 113.305L238.131 104.283Z" fill="#4D5DFA"/>
<path id="Vector_30" d="M247.537 128.9C247.537 128.9 234.781 126.451 233.492 128.256L233.235 131.091C233.235 131.091 230.4 136.505 231.946 145.269C233.492 154.034 232.461 159.447 232.461 159.447C232.461 159.447 239.419 158.674 244.573 159.447C249.727 160.22 250.5 159.447 250.5 159.447L247.537 128.9Z" fill="#2F2E41"/>
<path id="Vector_31" d="M288.594 120.628C289.614 120.628 290.442 119.8 290.442 118.778C290.442 117.757 289.614 116.929 288.594 116.929C287.573 116.929 286.745 117.757 286.745 118.778C286.745 119.8 287.573 120.628 288.594 120.628Z" fill="#E6E6E6"/>
<path id="Vector_32" d="M328.151 119.518C329.172 119.518 330 118.69 330 117.669C330 116.648 329.172 115.82 328.151 115.82C327.131 115.82 326.303 116.648 326.303 117.669C326.303 118.69 327.131 119.518 328.151 119.518Z" fill="#E6E6E6"/>
<path id="Vector_33" d="M316.691 105.835C319.141 105.835 321.127 103.848 321.127 101.397C321.127 98.9459 319.141 96.959 316.691 96.959C314.241 96.959 312.254 98.9459 312.254 101.397C312.254 103.848 314.241 105.835 316.691 105.835Z" fill="#E6E6E6"/>
<path id="Vector_34" d="M300.794 98.8081C301.815 98.8081 302.642 97.9802 302.642 96.959C302.642 95.9377 301.815 95.1099 300.794 95.1099C299.773 95.1099 298.945 95.9377 298.945 96.959C298.945 97.9802 299.773 98.8081 300.794 98.8081Z" fill="#E6E6E6"/>
<path id="Vector_35" d="M299.315 96.959C300.336 96.959 301.163 96.1311 301.163 95.1099C301.163 94.0886 300.336 93.2607 299.315 93.2607C298.294 93.2607 297.466 94.0886 297.466 95.1099C297.466 96.1311 298.294 96.959 299.315 96.959Z" fill="#E6E6E6"/>
<path id="Vector_36" d="M297.466 94.0004C298.487 94.0004 299.315 93.1725 299.315 92.1513C299.315 91.1301 298.487 90.3022 297.466 90.3022C296.445 90.3022 295.618 91.1301 295.618 92.1513C295.618 93.1725 296.445 94.0004 297.466 94.0004Z" fill="#E6E6E6"/>
<path id="Vector_37" d="M243.102 95.534C246.091 95.534 248.514 94.0798 248.514 92.286C248.514 90.4922 246.091 89.0381 243.102 89.0381C240.113 89.0381 237.691 90.4922 237.691 92.286C237.691 94.0798 240.113 95.534 243.102 95.534Z" fill="#2F2E41"/>
<path id="Vector_38" d="M302.642 86.9738C303.663 86.9738 304.491 86.1459 304.491 85.1247C304.491 84.1035 303.663 83.2756 302.642 83.2756C301.621 83.2756 300.794 84.1035 300.794 85.1247C300.794 86.1459 301.621 86.9738 302.642 86.9738Z" fill="#E6E6E6"/>
<path id="Vector_39" d="M246.76 88.937C248.553 88.937 250.007 87.4829 250.007 85.6891C250.007 83.8953 248.553 82.4411 246.76 82.4411C244.967 82.4411 243.513 83.8953 243.513 85.6891C243.513 87.4829 244.967 88.937 246.76 88.937Z" fill="#2F2E41"/>
<path id="Vector_40" d="M320.757 85.4945C321.778 85.4945 322.606 84.6666 322.606 83.6454C322.606 82.6242 321.778 81.7963 320.757 81.7963C319.737 81.7963 318.909 82.6242 318.909 83.6454C318.909 84.6666 319.737 85.4945 320.757 85.4945Z" fill="#E6E6E6"/>
<path id="Vector_41" d="M304.121 85.1247C305.142 85.1247 305.969 84.2968 305.969 83.2756C305.969 82.2543 305.142 81.4265 304.121 81.4265C303.1 81.4265 302.272 82.2543 302.272 83.2756C302.272 84.2968 303.1 85.1247 304.121 85.1247Z" fill="#E6E6E6"/>
<path id="Vector_42" d="M251.089 83.9298C251.089 83.1269 250.792 82.3526 250.254 81.756C249.717 81.1595 248.978 80.7831 248.18 80.6994C248.293 80.6877 248.405 80.6819 248.518 80.6818C249.38 80.6818 250.205 81.024 250.814 81.6331C251.423 82.2422 251.765 83.0684 251.765 83.9298C251.765 84.7912 251.423 85.6173 250.814 86.2264C250.205 86.8355 249.38 87.1777 248.518 87.1777C248.405 87.1777 248.293 87.1718 248.18 87.1601C248.978 87.0764 249.717 86.7 250.254 86.1035C250.792 85.507 251.089 84.7326 251.089 83.9298V83.9298Z" fill="#2F2E41"/>
<path id="Vector_43" d="M305.23 83.2756C306.251 83.2756 307.079 82.4477 307.079 81.4265C307.079 80.4052 306.251 79.5774 305.23 79.5774C304.209 79.5774 303.382 80.4052 303.382 81.4265C303.382 82.4477 304.209 83.2756 305.23 83.2756Z" fill="#E6E6E6"/>
<path id="Vector_44" d="M283.048 80.317C285.498 80.317 287.484 78.3301 287.484 75.8792C287.484 73.4282 285.498 71.4413 283.048 71.4413C280.598 71.4413 278.612 73.4282 278.612 75.8792C278.612 78.3301 280.598 80.317 283.048 80.317Z" fill="#E6E6E6"/>
<path id="Vector_45" d="M290.812 63.6751C291.833 63.6751 292.66 62.8472 292.66 61.826C292.66 60.8047 291.833 59.9768 290.812 59.9768C289.791 59.9768 288.963 60.8047 288.963 61.826C288.963 62.8472 289.791 63.6751 290.812 63.6751Z" fill="#E6E6E6"/>
<path id="Vector_46" d="M316.691 59.9768C319.141 59.9768 321.127 57.99 321.127 55.539C321.127 53.088 319.141 51.1011 316.691 51.1011C314.241 51.1011 312.254 53.088 312.254 55.539C312.254 57.99 314.241 59.9768 316.691 59.9768Z" fill="#E6E6E6"/>
<path id="Vector_47" d="M171.517 48.4739H167.394V56.2072H171.517V48.4739Z" fill="#3F3D56"/>
<path id="Vector_48" d="M285.266 50.3615C287.716 50.3615 289.703 48.3746 289.703 45.9236C289.703 43.4727 287.716 41.4858 285.266 41.4858C282.816 41.4858 280.83 43.4727 280.83 45.9236C280.83 48.3746 282.816 50.3615 285.266 50.3615Z" fill="#E6E6E6"/>
<path id="Vector_49" d="M308.927 41.116C309.948 41.116 310.776 40.2881 310.776 39.2669C310.776 38.2456 309.948 37.4178 308.927 37.4178C307.906 37.4178 307.079 38.2456 307.079 39.2669C307.079 40.2881 307.906 41.116 308.927 41.116Z" fill="#E6E6E6"/>
<path id="Vector_50" d="M298.662 39.1557C300.702 39.1557 302.356 37.5013 302.356 35.4605C302.356 33.4197 300.702 31.7654 298.662 31.7654C296.621 31.7654 294.968 33.4197 294.968 35.4605C294.968 37.5013 296.621 39.1557 298.662 39.1557Z" fill="#E6E6E6"/>
<path id="Vector_51" d="M179.763 19.6029H159.663V42.8028H179.763V19.6029Z" fill="#3F3D56"/>
<path id="Vector_52" d="M169.713 26.0473C182.522 26.0473 192.906 23.162 192.906 19.6029C192.906 16.0437 182.522 13.1584 169.713 13.1584C156.904 13.1584 146.521 16.0437 146.521 19.6029C146.521 23.162 156.904 26.0473 169.713 26.0473Z" fill="#3F3D56"/>
<path id="Vector_53" d="M328.339 15.5884C328.117 11.679 326.516 7.97515 323.819 5.13726C321.122 2.29937 317.505 0.511901 313.613 0.0935384C309.721 -0.324824 305.807 0.653119 302.568 2.853C299.33 5.05289 296.978 8.33172 295.932 12.1049C295.732 12.0977 295.532 12.0897 295.33 12.0897C291.761 12.0903 288.289 13.2468 285.432 15.3859C282.576 17.5251 280.488 20.532 279.482 23.9568C277.117 22.9175 274.475 22.692 271.969 23.3157C269.462 23.9393 267.233 25.3769 265.631 27.4033H317.153C318.657 27.4075 320.145 27.1083 321.53 26.5236C322.915 25.9389 324.167 25.0807 325.213 24.0003C326.258 22.92 327.075 21.6397 327.614 20.2362C328.153 18.8326 328.403 17.3347 328.35 15.8321C328.347 15.751 328.343 15.6698 328.339 15.5884Z" fill="#E6E6E6"/>
</g>
<defs>
<clipPath id="clip0_769_20018">
<rect width="330" height="200" fill="white"/>
</clipPath>
</defs>
</svg>
